<svg width="100" height="100" viewBox="0 0 100 100" fill="none" xmlns="http://www.w3.org/2000/svg">
<path d="M50.0768 56.4529L32.6043 47.2171L2.27476 31.1872C2.24685 31.1596 2.1917 31.1596 2.16379 31.1596C1.05648 30.6333 -0.0787334 31.741 0.336549 32.8483L15.7907 72.2642L15.7934 72.2725C15.81 72.3114 15.8239 72.35 15.8405 72.3888C16.4748 73.8589 17.8588 74.7669 19.3651 75.124C19.4924 75.1519 19.5834 75.1769 19.7362 75.2074C19.8887 75.2413 20.1017 75.2875 20.2844 75.3015C20.3143 75.3041 20.3422 75.3041 20.3728 75.3068H20.395C20.4169 75.3098 20.4392 75.3098 20.4615 75.3124H20.4917C20.5113 75.3151 20.5332 75.3151 20.5528 75.3151H20.5887C20.611 75.3181 20.6329 75.3181 20.6552 75.3181C40.2272 77.4519 59.9732 77.4519 79.5452 75.3181C79.7804 75.3181 80.0103 75.3068 80.2316 75.2848L80.4422 75.2599C80.4505 75.2569 80.4615 75.2569 80.4698 75.2543C80.517 75.2486 80.5638 75.2403 80.611 75.232C80.6801 75.2237 80.7495 75.2101 80.8186 75.1961C80.9572 75.1656 81.0199 75.1436 81.208 75.0789C81.3957 75.0144 81.7076 74.9015 81.9027 74.8074C82.098 74.7134 82.2332 74.623 82.3967 74.5207C82.5985 74.3941 82.7951 74.2593 82.9861 74.1167C83.0701 74.0523 83.1276 74.0111 83.1884 73.9529L83.1552 73.9337L50.0768 56.4529Z" fill="#FF4B4B"/>
<path d="M97.9289 31.1874H97.9013L67.5605 47.2173L84.4266 72.3366L99.8418 32.8486V32.7931C100.23 31.6303 99.0392 30.5785 97.9289 31.1874Z" fill="#7D353B"/>
<path d="M51.6937 23.5655C50.9183 22.4329 49.2296 22.4329 48.4821 23.5655L32.6043 47.2173L50.0768 56.4532L83.1887 73.9529C83.3967 73.7492 83.5635 73.5509 83.7395 73.3412C83.9973 73.0269 84.2271 72.6906 84.4263 72.3362L67.5601 47.2173L51.6937 23.5655Z" fill="#BD4043"/>
</svg>
